<svg width="760" height="220" viewBox="0 0 760 220" fill="none" xmlns="http://www.w3.org/2000/svg">
  <defs>
    <linearGradient id="zilla_shell" x1="22" y1="18" x2="206" y2="202" gradientUnits="userSpaceOnUse">
      <stop stop-color="#23352E"/>
      <stop offset="1" stop-color="#101814"/>
    </linearGradient>
    <linearGradient id="zilla_face" x1="52" y1="58" x2="164" y2="172" gradientUnits="userSpaceOnUse">
      <stop stop-color="#315B47"/>
      <stop offset="1" stop-color="#1B3127"/>
    </linearGradient>
    <linearGradient id="zilla_glow" x1="70" y1="34" x2="158" y2="128" gradientUnits="userSpaceOnUse">
      <stop stop-color="#D9FF73"/>
      <stop offset="1" stop-color="#72D45C"/>
    </linearGradient>
    <filter id="zilla_shadow" x="0" y="0" width="760" height="220" filterUnits="userSpaceOnUse" color-interpolation-filters="sRGB">
      <feDropShadow dx="0" dy="12" stdDeviation="14" flood-color="#0F172A" flood-opacity="0.16"/>
    </filter>
  </defs>

  <g filter="url(#zilla_shadow)">
    <rect x="18" y="18" width="184" height="184" rx="42" fill="url(#zilla_shell)"/>
    <rect x="30" y="30" width="160" height="160" rx="34" fill="#16211C" stroke="rgba(217,255,115,0.2)"/>

    <path d="M58 54L74 30L90 56L58 54Z" fill="url(#zilla_glow)"/>
    <path d="M84 48L104 18L122 52L84 48Z" fill="url(#zilla_glow)"/>
    <path d="M118 52L140 24L156 62L118 52Z" fill="url(#zilla_glow)"/>

    <path d="M52 102C52 77.6995 71.6995 58 96 58H136C149.255 58 160 68.7452 160 82V116C160 150.242 132.242 178 98 178H84C66.3269 178 52 163.673 52 146V102Z" fill="url(#zilla_face)"/>

    <path d="M86 72H155L136 92L96 94L86 72Z" fill="#223A2E"/>
    <path d="M120 95C132.703 95 143 84.7025 143 72C143 59.2975 132.703 49 120 49" stroke="#274436" stroke-width="8" stroke-linecap="round"/>

    <circle cx="116" cy="99" r="8" fill="#D9FF73"/>
    <path d="M117 91V107" stroke="#101814" stroke-width="3" stroke-linecap="round"/>
    <path d="M98 115L147 113L158 121L147 131L103 132L98 115Z" fill="#0D1511"/>
    <path d="M106 116V130" stroke="#D6E8DA" stroke-width="2"/>
    <path d="M118 115V131" stroke="#D6E8DA" stroke-width="2"/>
    <path d="M130 114V132" stroke="#D6E8DA" stroke-width="2"/>
    <path d="M142 113V133" stroke="#D6E8DA" stroke-width="2"/>
    <path d="M101 121H154" stroke="#D6E8DA" stroke-width="2"/>
    <path d="M101 127H152" stroke="#D6E8DA" stroke-width="2"/>

    <path d="M66 132L50 142" stroke="#72D45C" stroke-width="10" stroke-linecap="round"/>
    <path d="M72 151L55 164" stroke="#72D45C" stroke-width="10" stroke-linecap="round"/>

    <circle cx="62" cy="62" r="6" fill="#D9FF73"/>
    <circle cx="82" cy="62" r="6" fill="#72D45C"/>
  </g>

  <g>
    <text x="232" y="106" font-family="Inter, Arial, sans-serif" font-size="66" font-weight="900" letter-spacing="-2.2" fill="#17201B">Sessionzilla</text>
    <text x="236" y="145" font-family="Inter, Arial, sans-serif" font-size="22" font-weight="800" letter-spacing="1.8" fill="#3E5A4A">KAIJU-POWERED SESSION CONTROL</text>
    <rect x="236" y="164" width="222" height="14" rx="7" fill="#DCE7DF"/>
    <rect x="236" y="164" width="132" height="14" rx="7" fill="url(#zilla_glow)"/>
  </g>
</svg>
